<?xml version="1.0" encoding="iso-8859-1"?>
<!-- Uploaded to: SVG Repo, www.svgrepo.com, Generator: SVG Repo Mixer Tools -->
<svg fill="#000000" height="800px" width="800px" version="1.1" id="Layer_1" xmlns="http://www.w3.org/2000/svg" xmlns:xlink="http://www.w3.org/1999/xlink" 
	 viewBox="0 0 512.013 512.013" xml:space="preserve">
<g>
	<g>
		<g>
			<path d="M234.669,96.832v13.781c-24.768,8.832-42.667,32.277-42.667,60.053s17.899,51.243,42.667,60.075V256
				c0,11.797,9.536,21.333,21.333,21.333c11.797,0,21.333-9.536,21.333-21.333v-25.259c24.768-8.832,42.667-32.299,42.667-60.075
				s-17.899-51.221-42.667-60.053V96.832l121.92,54.187c-9.365,11.136-15.253,25.323-15.253,40.981
				c0,27.776,17.899,51.243,42.667,60.075v25.259c0,11.797,9.536,21.333,21.333,21.333c11.797,0,21.333-9.536,21.333-21.333v-25.259
				c24.768-8.832,42.667-32.299,42.667-60.075c0-33.28-25.643-60.395-58.155-63.403L277.336,50.155V21.333
				C277.336,9.557,267.8,0,256.003,0c-11.797,0-21.333,9.557-21.333,21.333v28.821L58.157,128.597
				C25.645,131.605,0.003,158.72,0.003,192c0,27.776,17.899,51.243,42.667,60.075v25.259c0,11.797,9.536,21.333,21.333,21.333
				c11.797,0,21.333-9.536,21.333-21.333v-25.259c24.768-8.832,42.667-32.299,42.667-60.075c0-15.659-5.888-29.845-15.253-40.981
				L234.669,96.832z"/>
			<path d="M502.878,468.527c-27.733-19.392-33.536-33.451-33.536-41.856c0-11.776,11.285-25.621,33.536-41.173
				c6.528-4.544,9.963-12.331,8.96-20.203c-1.024-7.872-6.315-14.528-13.781-17.301c-6.037-2.24-17.92-4.011-28.715-5.184v-1.472
				c0-11.776-9.557-21.333-21.333-21.333c-11.797,0-21.333,9.557-21.333,21.333v3.328c-36.757,9.963-64,43.285-64,83.136
				c0,47.211,37.483,84.203,85.333,84.203c3.285,0,37.589-1.387,50.048-5.995c7.467-2.752,12.757-9.408,13.781-17.28
				C512.841,480.858,509.406,473.071,502.878,468.527z"/>
			<path d="M273.065,307.206c-0.128-0.171-0.363-0.213-0.491-0.384c-3.904-4.843-9.643-8.149-16.363-8.149h-0.213
				c-6.507,0-12.096,3.072-15.979,7.68c-0.32,0.363-0.789,0.469-1.088,0.853l-64,85.333c-5.675,7.573-5.675,18.027,0,25.6l64,85.333
				c4.032,5.376,10.368,8.533,17.067,8.533c6.72,0,13.056-3.157,17.067-8.533l64-85.333c5.696-7.573,5.696-18.027,0-25.6
				L273.065,307.206z"/>
			<path d="M85.336,346.402v-5.056c0-11.776-9.536-21.333-21.333-21.333c-11.797,0-21.333,9.557-21.333,21.333v5.056
				c-25.045,11.52-42.667,42.496-42.667,80.277c0,47.851,28.096,85.333,64,85.333s64-37.483,64-85.333
				C128.003,388.898,110.381,357.922,85.336,346.402z"/>
		</g>
	</g>
</g>
</svg>