<?xml version="1.0" encoding="utf-8"?>
<!-- Generator: Adobe Illustrator 25.2.1, SVG Export Plug-In . SVG Version: 6.00 Build 0)  -->
<svg version="1.1" id="Capa_1" xmlns="http://www.w3.org/2000/svg" xmlns:xlink="http://www.w3.org/1999/xlink" x="0px" y="0px"
	 viewBox="0 0 37.8 24.5" style="enable-background:new 0 0 37.8 24.5;" xml:space="preserve">
<style type="text/css">
	.st0{fill:#86DCD5;}
	.st1{fill:#F7A9BE;}
	.st2{fill:#EDC14B;}
	.st3{fill:#95C8E1;}
	.st4{fill:#19BBA9;}
</style>
<circle class="st0" cx="8.2" cy="11.7" r="6.6"/>
<path class="st1" d="M13.5,4l7.7,15.4L33.1,15C33.1,15,29.6-1,13.5,4z"/>
<polygon class="st2" points="10,19.8 17.5,16 21.1,23.6 "/>
<path class="st3" d="M23.3,20.8l9.3-3.4c0,0,3.8,4.9-4.2,7.1L23.3,20.8z"/>
<path class="st4" d="M35.7,17.9c0.1-2.2-0.2-4.4-0.8-6.5c-1.3-4.9-5.2-8.7-10.2-9.6C19,0.5,13.1,0.7,7.7,2.5c-3,0.8-5.6,2.8-7.1,5.6
	C0.4,8.4,0.2,8.6,0,8.8c1.3-4,4.4-6.1,8.2-7.2c5.8-2,12.1-2.1,18-0.2c4.9,1.4,8.5,5.6,9.3,10.6c0.4,1.6,0.6,3.3,0.6,5
	c0,0.3-0.1,0.7-0.1,1L35.7,17.9z"/>
</svg>
